<svg width="18" height="18" viewBox="0 0 18 18" fill="none" xmlns="http://www.w3.org/2000/svg">
<g clip-path="url(#clip0_818_45254)">
<path d="M16.3934 0.966797H1.6077C1.25212 0.966797 0.964844 1.25407 0.964844 1.60965V16.3954C0.964844 16.7509 1.25212 17.0382 1.6077 17.0382H16.3934C16.749 17.0382 17.0363 16.7509 17.0363 16.3954V1.60965C17.0363 1.25407 16.749 0.966797 16.3934 0.966797ZM15.5898 15.5918H2.41127V2.41323H15.5898V15.5918ZM5.5452 12.4378V13.9847C5.5452 14.073 5.61752 14.1454 5.70592 14.1454H6.6702C6.75859 14.1454 6.83092 14.073 6.83092 13.9847V12.4378C6.62801 12.5041 6.41306 12.5382 6.18806 12.5382C5.96306 12.5382 5.7481 12.5021 5.5452 12.4378ZM6.83092 8.4601V4.02037C6.83092 3.93198 6.75859 3.85965 6.6702 3.85965H5.70592C5.61752 3.85965 5.5452 3.93198 5.5452 4.02037V8.4601C5.7481 8.39381 5.96306 8.35965 6.18806 8.35965C6.41306 8.35965 6.62801 8.39582 6.83092 8.4601ZM5.5452 12.4378C5.7481 12.5041 5.96306 12.5382 6.18806 12.5382C6.41306 12.5382 6.62801 12.5021 6.83092 12.4378C7.67065 12.1666 8.27734 11.3791 8.27734 10.4489C8.27734 9.51881 7.67065 8.73131 6.83092 8.4601C6.62801 8.39381 6.41306 8.35965 6.18806 8.35965C5.96306 8.35965 5.7481 8.39582 5.5452 8.4601C4.70547 8.73131 4.09877 9.51881 4.09877 10.4489C4.09877 11.3791 4.70547 12.1666 5.5452 12.4378ZM5.54721 10.1134C5.55324 10.1014 5.56127 10.0893 5.5673 10.0773V10.0753L5.59141 10.0391C5.59342 10.0351 5.59542 10.0331 5.59743 10.0291C5.60346 10.019 5.6115 10.011 5.61752 10.0009C5.61953 9.99894 5.62154 9.99492 5.62355 9.99291C5.63359 9.98086 5.64163 9.97082 5.65167 9.96077L5.6577 9.95474L5.68181 9.93064L5.68984 9.9226C5.69989 9.91256 5.70993 9.90452 5.72199 9.89448C5.73404 9.88443 5.74409 9.8764 5.75614 9.86836C5.76016 9.86635 5.76217 9.86434 5.76618 9.86233C5.77623 9.85631 5.78426 9.84827 5.79431 9.84224C5.79632 9.84023 5.80033 9.83823 5.80234 9.83622C5.8144 9.82818 5.82645 9.82216 5.84051 9.81412C5.84252 9.81211 5.84654 9.81211 5.84855 9.8101C5.85859 9.80407 5.86864 9.80006 5.88069 9.79403L5.89275 9.788C5.90681 9.78198 5.91886 9.77595 5.93292 9.77193C5.94699 9.7659 5.96105 9.76189 5.97511 9.75787C5.97913 9.75586 5.98315 9.75586 5.98717 9.75385C5.99922 9.74983 6.00926 9.74782 6.02132 9.74582C6.02534 9.74582 6.02734 9.74381 6.03136 9.74381C6.04542 9.73979 6.0615 9.73778 6.07556 9.73577C6.07958 9.73577 6.08159 9.73577 6.0856 9.73376C6.09766 9.73175 6.10971 9.73175 6.12176 9.72974H6.13382C6.14989 9.72974 6.16395 9.72773 6.18002 9.72773C6.19609 9.72773 6.21016 9.72774 6.22623 9.72974H6.23828C6.25034 9.72974 6.26239 9.73175 6.27444 9.73376C6.27846 9.73376 6.28047 9.73376 6.28449 9.73577C6.29855 9.73778 6.31462 9.73979 6.32868 9.74381C6.3327 9.74381 6.33471 9.74582 6.33873 9.74582C6.35078 9.74782 6.36284 9.75184 6.37288 9.75385C6.3769 9.75586 6.38092 9.75586 6.38493 9.75787C6.399 9.76189 6.41306 9.7659 6.42712 9.77193C6.44118 9.77595 6.45324 9.78198 6.4673 9.788L6.47935 9.79403C6.4894 9.79805 6.50145 9.80407 6.5115 9.8101C6.51351 9.81211 6.51752 9.81211 6.51953 9.81412C6.53159 9.82015 6.54565 9.82818 6.5577 9.83622C6.55971 9.83823 6.56373 9.84023 6.56574 9.84224C6.57578 9.84827 6.58583 9.8543 6.59386 9.86233C6.59788 9.86434 6.59989 9.86635 6.60391 9.86836C6.61596 9.8764 6.62801 9.88644 6.63806 9.89448C6.6481 9.90251 6.66016 9.91256 6.6702 9.9226L6.67824 9.93064L6.70234 9.95474L6.70837 9.96077C6.71842 9.97082 6.72846 9.98287 6.7365 9.99291C6.7385 9.99492 6.74051 9.99894 6.74252 10.0009C6.75056 10.009 6.75659 10.019 6.76261 10.0291C6.76462 10.0331 6.76663 10.0351 6.76864 10.0391L6.79275 10.0753C6.79275 10.0753 6.79275 10.0773 6.79476 10.0773C6.86174 10.1897 6.89713 10.3181 6.89721 10.4489C6.89721 10.5695 6.86708 10.684 6.81484 10.7844C6.80882 10.7965 6.80078 10.8085 6.79476 10.8206C6.79476 10.8206 6.79476 10.8226 6.79275 10.8226L6.76864 10.8588C6.76663 10.8628 6.76462 10.8648 6.76261 10.8688C6.75659 10.8789 6.74855 10.8869 6.74252 10.8969C6.74051 10.8989 6.7385 10.903 6.7365 10.905C6.72645 10.917 6.71842 10.9271 6.70837 10.9371L6.70234 10.9431L6.67824 10.9672L6.6702 10.9753C6.66016 10.9853 6.65011 10.9934 6.63806 11.0034C6.626 11.0134 6.61596 11.0215 6.60391 11.0295C6.59989 11.0315 6.59788 11.0335 6.59386 11.0355C6.58382 11.0416 6.57578 11.0496 6.56574 11.0556C6.56373 11.0576 6.55971 11.0597 6.5577 11.0617C6.54565 11.0697 6.53359 11.0757 6.51953 11.0838C6.51752 11.0858 6.51351 11.0858 6.5115 11.0878C6.50145 11.0938 6.49141 11.0978 6.47935 11.1039L6.4673 11.1099C6.45324 11.1159 6.44118 11.1219 6.42712 11.1259C6.41306 11.132 6.399 11.136 6.38493 11.14C6.38092 11.142 6.3769 11.142 6.37288 11.144C6.36083 11.148 6.35078 11.1501 6.33873 11.1521C6.33471 11.1521 6.3327 11.1541 6.32868 11.1541C6.31462 11.1581 6.29855 11.1601 6.28449 11.1621C6.28047 11.1621 6.27846 11.1621 6.27444 11.1641C6.26239 11.1661 6.25034 11.1661 6.23828 11.1681H6.22623C6.21016 11.1681 6.19609 11.1701 6.18002 11.1701C6.16395 11.1701 6.14989 11.1701 6.13382 11.1681H6.12176C6.10971 11.1681 6.09766 11.1661 6.0856 11.1641C6.08159 11.1641 6.07958 11.1641 6.07556 11.1621C6.0615 11.1601 6.04542 11.1581 6.03136 11.1541C6.02734 11.1541 6.02534 11.1521 6.02132 11.1521C6.00926 11.1501 5.99721 11.146 5.98717 11.144C5.98315 11.142 5.97913 11.142 5.97511 11.14C5.96105 11.136 5.94699 11.132 5.93292 11.1259C5.91886 11.1219 5.90681 11.1159 5.89275 11.1099L5.88069 11.1039C5.87065 11.0998 5.85859 11.0938 5.84855 11.0878C5.84654 11.0858 5.84252 11.0858 5.84051 11.0838C5.82846 11.0777 5.8144 11.0697 5.80234 11.0617C5.80033 11.0597 5.79632 11.0576 5.79431 11.0556C5.78426 11.0496 5.77422 11.0436 5.76618 11.0355C5.76217 11.0335 5.76016 11.0315 5.75614 11.0295C5.74409 11.0215 5.73203 11.0114 5.72199 11.0034C5.71194 10.9954 5.69989 10.9853 5.68984 10.9753L5.68181 10.9672L5.6577 10.9431L5.65167 10.9371C5.64163 10.9271 5.63159 10.915 5.62355 10.905C5.62154 10.903 5.61953 10.8989 5.61752 10.8969C5.60949 10.8889 5.60346 10.8789 5.59743 10.8688C5.59542 10.8648 5.59342 10.8628 5.59141 10.8588L5.5673 10.8226V10.8206C5.55926 10.8085 5.55324 10.7965 5.54721 10.7844C5.49498 10.684 5.46484 10.5695 5.46484 10.4489C5.46484 10.3284 5.49498 10.2139 5.54721 10.1134ZM11.1702 9.54492V13.9847C11.1702 14.073 11.2425 14.1454 11.3309 14.1454H12.2952C12.3836 14.1454 12.4559 14.073 12.4559 13.9847V9.54492C12.253 9.61122 12.0381 9.64537 11.8131 9.64537C11.5881 9.64537 11.3731 9.60921 11.1702 9.54492ZM12.4559 5.56724V4.02037C12.4559 3.93198 12.3836 3.85965 12.2952 3.85965H11.3309C11.2425 3.85965 11.1702 3.93198 11.1702 4.02037V5.56724C11.3731 5.50095 11.5881 5.4668 11.8131 5.4668C12.0381 5.4668 12.253 5.50296 12.4559 5.56724ZM11.1702 9.54492C11.3731 9.61122 11.5881 9.64537 11.8131 9.64537C12.0381 9.64537 12.253 9.60921 12.4559 9.54492C13.2956 9.27372 13.9023 8.48622 13.9023 7.55608C13.9023 6.62595 13.2956 5.83845 12.4559 5.56724C12.253 5.50095 12.0381 5.4668 11.8131 5.4668C11.5881 5.4668 11.3731 5.50296 11.1702 5.56724C10.3305 5.83845 9.72377 6.62595 9.72377 7.55608C9.72377 8.48622 10.3305 9.27372 11.1702 9.54492ZM11.1722 7.22059C11.1782 7.20854 11.1863 7.19648 11.1923 7.18443V7.18242L11.2164 7.14626C11.2184 7.14224 11.2204 7.14023 11.2224 7.13622C11.2285 7.12617 11.2365 7.11814 11.2425 7.10809C11.2445 7.10608 11.2465 7.10206 11.2486 7.10006C11.2586 7.088 11.2666 7.07796 11.2767 7.06791L11.2827 7.06189L11.3068 7.03778L11.3148 7.02974C11.3249 7.0197 11.3349 7.01166 11.347 7.00162C11.359 6.99157 11.3691 6.98354 11.3811 6.9755C11.3852 6.97349 11.3872 6.97148 11.3912 6.96948C11.4012 6.96345 11.4093 6.95541 11.4193 6.94939C11.4213 6.94738 11.4253 6.94537 11.4273 6.94336C11.4394 6.93532 11.4515 6.9293 11.4655 6.92126C11.4675 6.91925 11.4715 6.91925 11.4735 6.91724C11.4836 6.91122 11.4936 6.9072 11.5057 6.90117L11.5177 6.89515C11.5318 6.88912 11.5439 6.88309 11.5579 6.87907C11.572 6.87305 11.5861 6.86903 11.6001 6.86501C11.6041 6.863 11.6081 6.863 11.6122 6.86099C11.6242 6.85698 11.6343 6.85497 11.6463 6.85296C11.6503 6.85296 11.6523 6.85095 11.6564 6.85095C11.6704 6.84693 11.6865 6.84492 11.7006 6.84291C11.7046 6.84291 11.7066 6.84291 11.7106 6.8409C11.7227 6.8389 11.7347 6.8389 11.7468 6.83689H11.7588C11.7749 6.83689 11.789 6.83488 11.805 6.83488C11.8211 6.83488 11.8352 6.83488 11.8512 6.83689H11.8633C11.8753 6.83689 11.8874 6.8389 11.8994 6.8409C11.9035 6.8409 11.9055 6.8409 11.9095 6.84291C11.9235 6.84492 11.9396 6.84693 11.9537 6.85095C11.9577 6.85095 11.9597 6.85296 11.9637 6.85296C11.9758 6.85497 11.9878 6.85898 11.9979 6.86099C12.0019 6.863 12.0059 6.863 12.0099 6.86501C12.024 6.86903 12.0381 6.87305 12.0521 6.87907C12.0662 6.88309 12.0782 6.88912 12.0923 6.89515L12.1044 6.90117C12.1144 6.90519 12.1265 6.91122 12.1365 6.91724C12.1385 6.91925 12.1425 6.91925 12.1445 6.92126C12.1566 6.92729 12.1706 6.93532 12.1827 6.94336C12.1847 6.94537 12.1887 6.94738 12.1907 6.94939C12.2008 6.95541 12.2108 6.96144 12.2189 6.96948C12.2229 6.97148 12.2249 6.97349 12.2289 6.9755C12.241 6.98354 12.253 6.99358 12.2631 7.00162C12.2731 7.00965 12.2852 7.0197 12.2952 7.02974L12.3032 7.03778L12.3273 7.06189L12.3334 7.06791C12.3434 7.07796 12.3535 7.09001 12.3615 7.10006C12.3635 7.10206 12.3655 7.10608 12.3675 7.10809C12.3756 7.11613 12.3816 7.12617 12.3876 7.13622C12.3896 7.14023 12.3916 7.14224 12.3936 7.14626L12.4177 7.18242V7.18443C12.4847 7.29683 12.5201 7.42524 12.5202 7.55608C12.5202 7.67662 12.4901 7.79113 12.4378 7.89157C12.4318 7.90363 12.4238 7.91568 12.4177 7.92773V7.92974L12.3936 7.9659C12.3916 7.96992 12.3896 7.97193 12.3876 7.97595C12.3816 7.98599 12.3735 7.99403 12.3675 8.00407C12.3655 8.00608 12.3635 8.0101 12.3615 8.01211C12.3515 8.02416 12.3434 8.03421 12.3334 8.04425L12.3273 8.05028L12.3032 8.07439L12.2952 8.08242C12.2852 8.09247 12.2751 8.1005 12.2631 8.11055C12.251 8.12059 12.241 8.12863 12.2289 8.13666C12.2249 8.13867 12.2229 8.14068 12.2189 8.14269C12.2088 8.14872 12.2008 8.15675 12.1907 8.16278C12.1887 8.16479 12.1847 8.1668 12.1827 8.16881C12.1706 8.17684 12.1586 8.18287 12.1445 8.1909C12.1425 8.19291 12.1385 8.19291 12.1365 8.19492C12.1265 8.20095 12.1164 8.20497 12.1044 8.21099L12.0923 8.21702C12.0782 8.22305 12.0662 8.22907 12.0521 8.23309C12.0381 8.23912 12.024 8.24314 12.0099 8.24715C12.0059 8.24916 12.0019 8.24916 11.9979 8.25117C11.9858 8.25519 11.9758 8.2572 11.9637 8.25921C11.9597 8.25921 11.9577 8.26122 11.9537 8.26122C11.9396 8.26524 11.9235 8.26724 11.9095 8.26925C11.9055 8.26925 11.9035 8.26925 11.8994 8.27126C11.8874 8.27327 11.8753 8.27327 11.8633 8.27528H11.8512C11.8352 8.27528 11.8211 8.27729 11.805 8.27729C11.789 8.27729 11.7749 8.27729 11.7588 8.27528H11.7468C11.7347 8.27528 11.7227 8.27327 11.7106 8.27126C11.7066 8.27126 11.7046 8.27126 11.7006 8.26925C11.6865 8.26724 11.6704 8.26524 11.6564 8.26122C11.6523 8.26122 11.6503 8.25921 11.6463 8.25921C11.6343 8.2572 11.6222 8.25318 11.6122 8.25117C11.6081 8.24916 11.6041 8.24916 11.6001 8.24715C11.5861 8.24314 11.572 8.23912 11.5579 8.23309C11.5439 8.22907 11.5318 8.22305 11.5177 8.21702L11.5057 8.21099C11.4956 8.20698 11.4836 8.20095 11.4735 8.19492C11.4715 8.19291 11.4675 8.19291 11.4655 8.1909C11.4535 8.18488 11.4394 8.17684 11.4273 8.16881C11.4253 8.1668 11.4213 8.16479 11.4193 8.16278C11.4093 8.15675 11.3992 8.15073 11.3912 8.14269C11.3872 8.14068 11.3852 8.13867 11.3811 8.13666C11.3691 8.12863 11.357 8.11858 11.347 8.11055C11.3369 8.10251 11.3249 8.09247 11.3148 8.08242L11.3068 8.07439L11.2827 8.05028L11.2767 8.04425C11.2666 8.03421 11.2566 8.02215 11.2486 8.01211C11.2465 8.0101 11.2445 8.00608 11.2425 8.00407C11.2345 7.99604 11.2285 7.98599 11.2224 7.97595C11.2204 7.97193 11.2184 7.96992 11.2164 7.9659L11.1923 7.92974V7.92773C11.1843 7.91568 11.1782 7.90363 11.1722 7.89157C11.12 7.79113 11.0898 7.67662 11.0898 7.55608C11.0898 7.43555 11.12 7.32104 11.1722 7.22059Z" fill="black" fill-opacity="0.85"/>
</g>
<defs>
<clipPath id="clip0_818_45254">
<rect width="18" height="18" fill="white"/>
</clipPath>
</defs>
</svg>
