<svg viewBox="-200 -200 1300 1300" xmlns="http://www.w3.org/2000/svg"><path d="M213.333 640v85.333c0 44.971 40.534 85.334 85.334 85.334h128V896h-128A170.667 170.667 0 01128 725.333V640h85.333zM768 426.667L955.733 896h-91.946l-51.243-128H638.037L586.88 896h-91.904l187.69-469.333H768zM725.333 549.76l-53.205 132.907h106.325l-53.12-132.907zM128 128h256a128 128 0 0195.36 213.333A128 128 0 01384 554.667H128V128zm256 256H213.333v85.333H384A42.667 42.667 0 00384 384zm341.333-256A170.667 170.667 0 01896 298.667V384h-85.333v-85.333a85.333 85.333 0 00-85.334-85.334h-128V128h128zM384 213.333H213.333v85.334H384a42.667 42.667 0 000-85.334z"/></svg>